<svg width="74" height="22" viewBox="0 0 74 22" fill="none" xmlns="http://www.w3.org/2000/svg">
<g opacity="0.85">
<path d="M3.94126 16.6186L0 16.3161V16.084L0.232532 16.037C0.83888 15.8974 1.14205 15.5097 1.14205 14.8736V2.42068C1.14205 2.09459 1.09202 1.84635 0.990467 1.67596C0.888918 1.50558 0.682877 1.38954 0.372345 1.32638L0.0456233 1.23384V1.00029L4.19734 0L4.47697 0.210046L4.38425 3.49147V5.84164C4.89788 5.48471 5.45713 5.21738 6.06348 5.03818C6.66983 4.86045 7.28354 4.77084 7.90607 4.77084C8.79205 4.77084 9.57647 4.97648 10.2608 5.38776C10.9452 5.79904 11.4853 6.43506 11.8812 7.29581C12.2785 8.15656 12.4758 9.26261 12.4758 10.6125C12.4758 11.9624 12.2535 13.0831 11.8105 13.9762C11.3676 14.8692 10.7759 15.539 10.0386 15.99C9.29979 16.4394 8.4874 16.6656 7.60143 16.6656C7.02598 16.6656 6.4476 16.5878 5.8648 16.4321C5.282 16.2764 4.76542 16.059 4.31361 15.7799L3.93979 16.6172L3.94126 16.6186ZM6.43583 15.8739C6.93327 15.8739 7.36889 15.7197 7.74124 15.4083C8.11506 15.0984 8.4094 14.5666 8.62721 13.8131C8.84503 13.0611 8.95394 12.0255 8.95394 10.7065C8.95394 9.38746 8.85239 8.37101 8.65076 7.65715C8.44914 6.94328 8.16509 6.44681 7.80011 6.16773C7.43512 5.88864 6.99508 5.7491 6.48292 5.7491C5.75148 5.7491 5.07596 5.95034 4.45342 6.35427V15.2923C4.74776 15.4788 5.05094 15.6213 5.36294 15.7226C5.67347 15.824 6.0311 15.8739 6.43583 15.8739Z" fill="black"/>
<path d="M13.503 16.3162V16.0841L13.8533 15.9916C14.1638 15.899 14.3787 15.758 14.495 15.573C14.6112 15.3864 14.6701 15.147 14.6701 14.8517V7.56622C14.6701 7.22544 14.6112 6.9728 14.495 6.80976C14.3787 6.64671 14.1638 6.53508 13.8533 6.47192L13.503 6.37938V6.1473L17.5135 4.79742L17.7475 5.03097L17.9579 7.03302V7.21957C18.1757 6.78479 18.4598 6.38526 18.8086 6.02098C19.1588 5.6567 19.5474 5.35706 19.9742 5.12498C20.401 4.8929 20.8248 4.77539 21.2457 4.77539C21.8359 4.77539 22.2877 4.93843 22.5982 5.26452C22.9088 5.59061 23.0648 6.00189 23.0648 6.49836C23.0648 7.02568 22.9132 7.43402 22.61 7.72045C22.3068 8.00688 21.9448 8.15082 21.5254 8.15082C20.8719 8.15082 20.2965 7.82474 19.8005 7.17256L19.7534 7.12556C19.5974 6.90817 19.4193 6.78772 19.2177 6.76422C19.0161 6.74072 18.8292 6.83767 18.6585 7.05506C18.5024 7.1946 18.3744 7.36205 18.2729 7.55594C18.1713 7.74982 18.0742 7.97162 17.9815 8.21986V14.7137C17.9815 15.3335 18.2537 15.7228 18.7983 15.877L19.5444 16.0871V16.3191H13.5045V16.3162H13.503Z" fill="black"/>
<path d="M29.2666 4.77076C30.2777 4.77076 31.1401 4.9764 31.8554 5.38768C32.5706 5.79896 33.1181 6.35712 33.4993 7.06364C33.8804 7.77016 34.0703 8.57362 34.0703 9.47256C34.0703 9.64295 34.0629 9.81775 34.0467 9.99548C34.0306 10.1732 34.0011 10.3333 33.954 10.4729H27.0046C27.0193 12.1488 27.3195 13.3548 27.9023 14.0921C28.4851 14.8295 29.352 15.1982 30.5028 15.1982C31.2799 15.1982 31.9098 15.0748 32.3911 14.8251C32.8723 14.5768 33.3241 14.2126 33.7436 13.7308L33.9761 13.9408C33.4934 14.7942 32.8532 15.4626 32.0526 15.9429C31.2519 16.4232 30.2924 16.6641 29.1724 16.6641C28.0524 16.6641 27.0885 16.4276 26.2349 15.9546C25.3798 15.4817 24.7102 14.8016 24.2289 13.9173C23.7462 13.0331 23.5063 11.9784 23.5063 10.7519C23.5063 9.52544 23.7859 8.39736 24.3452 7.5043C24.9044 6.6127 25.6241 5.93262 26.5027 5.46699C27.3813 5.00137 28.3012 4.76929 29.2666 4.76929V4.77076ZM29.1974 5.23638C28.7456 5.23638 28.3615 5.37299 28.0436 5.64326C27.7242 5.91499 27.4755 6.39531 27.2974 7.08567C27.1179 7.77604 27.0208 8.74989 27.006 10.0072H30.9944C31.1489 8.31657 31.0871 7.09742 30.8075 6.35271C30.5279 5.608 29.9907 5.23491 29.1989 5.23491L29.1974 5.23638Z" fill="black"/>
<path d="M45.8529 5.14669C45.613 4.80004 45.2024 4.62378 44.6343 4.62378C44.0662 4.62378 43.6526 4.8632 43.3671 5.33617C43.0846 5.80474 43.0463 6.3585 43.2553 6.9857L43.6526 8.08147C43.8189 8.50303 43.8881 8.90256 43.8572 9.2683C43.8263 9.63405 43.6821 10.0174 43.426 10.4081C42.9654 11.1147 42.4679 11.8065 41.9484 12.4631C41.4671 13.0726 40.9491 13.7145 40.4075 14.3711C40.3177 13.0051 40.225 11.7022 40.1279 10.4919C40.0263 9.21983 39.9292 8.03153 39.8365 6.92988C39.6937 5.44781 39.0476 4.69575 37.9174 4.69575C37.3743 4.69575 36.8356 4.89258 36.3205 5.28183C35.8113 5.6652 35.2756 6.23805 34.7296 6.9857L34.6899 7.04005L35.0769 7.42636L35.1314 7.36173C35.7289 6.65374 36.063 6.50538 36.2381 6.50538C36.3588 6.50538 36.4633 6.54798 36.5575 6.63611C36.6222 6.69634 36.7061 6.85497 36.7429 7.27506C36.8975 8.68664 37.0535 10.1261 37.2095 11.592C37.3655 13.0668 37.5141 14.6678 37.6524 16.3497L37.6554 16.3834L37.9394 16.6111L39.4185 16.4451L39.4465 16.4422L39.4656 16.4231C40.6606 15.2142 41.7453 13.9745 42.6901 12.7377C43.6379 11.498 44.4238 10.3597 45.0272 9.35497C45.479 8.5941 45.7911 7.97865 45.9544 7.52624C46.1192 7.06943 46.2031 6.67724 46.2031 6.35997C46.2031 5.89581 46.0854 5.48894 45.8514 5.15257V5.14669H45.8529Z" fill="black"/>
<path d="M47.1068 16.3159V16.0838L47.4335 15.9913C47.744 15.8987 47.9574 15.7577 48.0752 15.5727C48.1914 15.3861 48.2503 15.1379 48.2503 14.8279V7.54242C48.2503 7.21633 48.1929 6.9725 48.0752 6.80946C47.9589 6.64641 47.7455 6.53478 47.4335 6.47162L47.1068 6.40258V6.16903L51.3748 4.79565L51.6088 5.0292L51.5381 8.33413V14.8514C51.5381 15.1614 51.597 15.4096 51.7132 15.5962C51.8295 15.7827 52.0356 15.9222 52.3314 16.0148L52.5654 16.0853V16.3174H47.1068V16.3159Z" fill="black"/>
<path d="M58.021 16.6654C57.0262 16.6654 56.252 16.4172 55.7001 15.9207C55.1482 15.4242 54.873 14.6325 54.873 13.5471V5.58732H53.2645V5.35524L53.8237 5.2627C54.305 5.15401 54.7215 4.99831 55.0717 4.79708C55.422 4.59584 55.7678 4.3241 56.1093 3.98186L58.021 1.86377H58.255L58.1844 5.12169H60.7967V5.58732H58.1609V13.9671C58.1609 14.5106 58.2815 14.9219 58.5229 15.201C58.7643 15.4801 59.0704 15.6196 59.4442 15.6196C59.7709 15.6196 60.0579 15.5388 60.3066 15.3758C60.5553 15.2127 60.8041 14.9909 61.0528 14.7119L61.2853 14.9439C60.9748 15.4713 60.5465 15.8913 60.0034 16.2013C59.4589 16.5112 58.7981 16.6669 58.021 16.6669V16.6654Z" fill="black"/>
<path d="M63.9432 21.9023C63.3222 21.9023 62.8277 21.7466 62.4627 21.4367C62.0977 21.1267 61.9152 20.7302 61.9152 20.2498C61.9152 19.8151 62.0697 19.4669 62.3817 19.2025C62.6923 18.9381 63.0425 18.8059 63.4311 18.8059C63.8196 18.8059 64.1463 18.8867 64.4098 19.0498C64.6747 19.2128 64.9072 19.4493 65.1088 19.7592L65.2722 19.9458C65.6136 20.4114 65.9565 20.4026 66.298 19.9223C66.4378 19.6902 66.5967 19.3832 66.7763 19.0028C66.9558 18.6223 67.1619 18.1141 67.3944 17.4781L62.8703 6.67907C62.7614 6.38383 62.6452 6.14734 62.5201 5.96961C62.395 5.79188 62.1934 5.64059 61.9137 5.51574L61.4943 5.35269V5.11914H67.3017V5.32919L66.8352 5.51574C66.4922 5.62443 66.3186 5.79923 66.3097 6.03865C66.3024 6.27954 66.3598 6.57772 66.4849 6.93465L68.9103 13.2184L71.2194 6.86415C71.343 6.50721 71.3901 6.20904 71.3592 5.96814C71.3283 5.72725 71.134 5.56127 70.7764 5.46726L70.2863 5.35122V5.11768H73.5285V5.35122L73.0149 5.51427C72.6573 5.62296 72.4086 5.77866 72.2687 5.97989C72.1289 6.18113 71.9965 6.46168 71.8728 6.81714L68.1185 17.036C67.5121 18.6649 66.9058 19.8826 66.2994 20.6905C65.6931 21.4969 64.9072 21.9008 63.9432 21.9008V21.9023Z" fill="black"/>
<path d="M49.8589 3.56069C49.3305 3.56069 48.8831 3.39471 48.5182 3.05981C48.1532 2.72638 47.9707 2.30335 47.9707 1.79072C47.9707 1.27809 48.1532 0.835963 48.5182 0.511346C48.8831 0.18526 49.3305 0.0222168 49.8589 0.0222168C50.3872 0.0222168 50.8302 0.18526 51.1878 0.511346C51.5455 0.837432 51.7236 1.2634 51.7236 1.79072C51.7236 2.31804 51.544 2.72638 51.1878 3.05981C50.8302 3.39324 50.3872 3.56069 49.8589 3.56069Z" fill="black"/>
</g>
</svg>
