<svg preserveAspectRatio="none" width="100%" height="100%" overflow="visible" style="display: block;" viewBox="0 0 47 45" fill="none" xmlns="http://www.w3.org/2000/svg">
<g id="icon_q1_witchcraft">
<path id="Vector" d="M23.298 0.0388934C23.2797 0.0907026 19.4573 12.1289 19.0717 13.3539C18.9395 13.772 18.8184 14.1532 18.8 14.205C18.7816 14.2568 18.6495 14.6713 18.5063 15.1302C18.363 15.5891 18.2309 16.0035 18.2125 16.0553C18.1941 16.1071 18.062 16.5216 17.9188 16.9805C17.7755 17.4394 17.6434 17.8539 17.625 17.9057C17.5259 18.1869 15.4219 24.8555 15.4255 24.8851C15.4255 24.9406 17.1917 26.3506 17.2211 26.3173C17.2358 26.3025 17.3716 25.888 17.5259 25.3995C18.0473 23.7305 18.9873 20.7367 19.3508 19.5895C19.5491 18.9567 19.9787 17.5911 20.3055 16.5549C20.6323 15.515 21.1096 13.9941 21.3703 13.1688C22.6738 9.02409 23.0227 7.91019 23.1034 7.64745C23.1512 7.48832 23.1952 7.35879 23.2063 7.35879C23.2173 7.35879 23.9002 9.40156 24.7264 11.8958L26.2245 16.4328L26.9846 16.4106C27.3995 16.3958 27.9834 16.3773 28.2771 16.3662L28.8132 16.344L28.5819 15.6335C28.457 15.2449 28.2037 14.4641 28.0201 13.8979C27.4032 12.0068 27.0287 10.8448 26.6982 9.82713C26.5183 9.27573 25.9381 7.48832 25.4094 5.86003C24.8806 4.23174 24.3041 2.44802 24.1242 1.90032C23.9443 1.34893 23.735 0.701311 23.6579 0.457068C23.5257 0.0425941 23.5073 0.0129888 23.4155 0.00188686C23.3568 -0.00551445 23.3091 0.00928818 23.298 0.0388934Z" fill="var(--fill-0, #FD2043)"/>
<path id="Vector_2" d="M25.1156 3.18815C25.1156 3.22145 25.8427 5.62688 25.861 5.64168C25.8684 5.65278 26.085 5.68979 26.3384 5.7305C28.7324 6.10056 30.9649 6.91471 33.0652 8.18403C35.2059 9.47556 37.1851 11.3518 38.6722 13.4908C39.0761 14.0718 39.6232 14.9895 39.9133 15.5742C40.0381 15.8296 40.1483 16.0442 40.1593 16.0553C40.1777 16.0738 42.0026 16.159 42.4909 16.1627L42.8104 16.1664L42.6635 15.8222C41.1323 12.2696 38.7126 9.25352 35.5988 7.00722C33.5095 5.50106 31.0824 4.37606 28.5819 3.75435C27.6162 3.5138 26.4191 3.31027 25.5379 3.23255C25.3984 3.22145 25.2441 3.20295 25.2001 3.19185C25.1523 3.18445 25.1156 3.18074 25.1156 3.18815Z" fill="var(--fill-0, #145F4A)"/>
<path id="Vector_3" d="M21.2785 3.25478C19.2223 3.51752 17.6213 3.9209 15.8258 4.63512C15.1612 4.90157 13.6851 5.6306 13.0535 6.00807C9.06586 8.38389 6.00719 11.9698 4.28875 16.2774C4.18594 16.5327 4.09781 16.7622 4.0868 16.7844C4.07211 16.8214 4.34015 16.8325 5.35726 16.8325C6.31195 16.8325 6.64609 16.8214 6.64609 16.7881C6.64609 16.7178 7.34742 15.293 7.60078 14.8526C9.11359 12.1993 11.2947 9.92336 13.8613 8.31358C15.8955 7.03685 18.084 6.2042 20.5074 5.78233C20.8122 5.73052 21.0619 5.68611 21.0655 5.68241C21.0655 5.67871 21.2124 5.19022 21.3887 4.60182C21.5613 4.00971 21.7265 3.45831 21.7559 3.3695L21.8073 3.21407L21.6714 3.21777C21.598 3.22147 21.4217 3.23998 21.2785 3.25478Z" fill="var(--fill-0, #145F4A)"/>
<path id="Vector_4" d="M43.8973 16.5401C42.1605 16.5697 38.6502 16.6289 35.3969 16.6844C34.1962 16.7067 32.2464 16.7363 31.0641 16.7585C26.9479 16.8288 24.205 16.8732 22.4829 16.9028C21.5282 16.9176 20.7388 16.9398 20.7277 16.9509C20.691 16.9879 20.0778 19.0973 20.0998 19.1158C20.1219 19.138 25.1487 19.0862 37.119 18.9382C38.8998 18.9196 40.3686 18.9048 40.3723 18.9122C40.3833 18.9233 32.2574 24.9776 32.0812 25.0923C32.0555 25.1071 32.1473 25.5142 32.3345 26.2321C32.4924 26.8465 32.6356 27.3682 32.6503 27.3868C32.6613 27.4127 32.9 27.2572 33.2378 27.0056C33.5463 26.7761 36.212 24.7778 39.1605 22.5685C42.1091 20.3592 45.0796 18.1351 45.7589 17.6281C46.8568 16.8066 46.9963 16.6919 47 16.5993V16.4994L46.2216 16.5068C45.792 16.5105 44.7455 16.5253 43.8973 16.5401Z" fill="var(--fill-0, #FD2043)"/>
<path id="Vector_5" d="M16.707 17.0064C16.5345 17.0101 15.2566 17.0323 13.8613 17.0545C12.4697 17.0767 10.362 17.11 9.17969 17.1285C7.99734 17.1507 6.05859 17.1803 4.86523 17.2025C3.67555 17.221 2.09297 17.2506 1.35125 17.2617L0 17.2876V17.3876C0 17.4764 0.492031 17.839 5.02312 21.0882C7.78437 23.0681 12.5578 26.4949 15.6348 28.7042C18.7082 30.9098 21.2455 32.7083 21.2712 32.6972C21.3336 32.675 23.2246 31.191 23.232 31.1614C23.2356 31.1466 22.5967 30.6692 21.8146 30.0993C21.0325 29.5294 17.39 26.8649 13.7218 24.1783L7.04633 19.2934L9.15031 19.2675C10.307 19.2527 12.4734 19.2268 13.9605 19.2083C15.4512 19.1898 16.6813 19.1676 16.6923 19.1565C16.718 19.1269 17.3312 17.0915 17.3312 17.0286C17.3312 16.9953 17.2835 16.9842 17.177 16.9879C17.0889 16.9916 16.8796 16.999 16.707 17.0064Z" fill="var(--fill-0, #FD2043)"/>
<path id="Vector_6" d="M28.5121 19.3859C28.1302 19.4007 27.6786 19.4155 27.5134 19.4192L27.2159 19.4229L30.4031 29.0631C32.1583 34.3662 33.5866 38.7034 33.5756 38.7034C33.5646 38.7034 26.7459 33.7186 25.9161 33.1043L25.8133 33.0266L24.7484 33.7445C23.9076 34.3107 23.6909 34.4698 23.7277 34.5068C23.7534 34.529 26.4265 36.4534 29.6688 38.7811C32.911 41.1051 36.1129 43.4069 36.7885 43.8917C37.4641 44.3765 38.0186 44.7687 38.0259 44.7613C38.0333 44.7539 37.2585 42.3522 34.9966 35.3913C34.8755 35.0249 34.4936 33.8518 34.1484 32.7823C33.8033 31.7128 33.3737 30.388 33.1938 29.8403C33.0138 29.2889 32.7201 28.3822 32.5365 27.8234C32.3566 27.2646 32.0591 26.3432 31.8756 25.7807C31.692 25.2145 31.3945 24.2967 31.2146 23.7453C31.0347 23.1902 30.7373 22.2761 30.5537 21.7173C30.3738 21.1585 30.1277 20.3999 30.0102 20.0335L29.7936 19.3674L29.4998 19.3637C29.342 19.3637 28.8977 19.3711 28.5121 19.3859Z" fill="var(--fill-0, #FD2043)"/>
<path id="Vector_7" d="M42.8324 20.1594C42.3037 20.5183 41.8373 20.8403 41.7896 20.8736L41.7015 20.9365L41.7602 21.3917C41.9916 23.0977 42.0136 24.5965 41.8373 26.1396C41.5877 28.3637 40.9818 30.4102 39.9867 32.3938C39.1091 34.1405 38.059 35.6207 36.6527 37.0788L36.1459 37.6043L36.4911 38.8662C36.6784 39.5582 36.8399 40.1318 36.8473 40.1392C36.873 40.1688 37.8717 39.2363 38.4445 38.6442C41.5179 35.469 43.4934 31.4242 44.1139 27.0352C44.2718 25.9361 44.3012 25.4402 44.3012 23.9933C44.3012 22.3317 44.2094 21.3436 43.9303 19.9632C43.8826 19.7227 43.8422 19.5192 43.8422 19.5118C43.8422 19.4748 43.7173 19.5525 42.8324 20.1594Z" fill="var(--fill-0, #145F4A)"/>
<path id="Vector_8" d="M3.13945 20.2852C3.01094 20.8958 2.86773 22.2799 2.83102 23.2864C2.77594 24.7112 2.85305 25.9731 3.06969 27.3757C3.73797 31.6573 5.77953 35.7021 8.82352 38.7885C9.42203 39.3954 9.98016 39.9061 10.0095 39.8802C10.0279 39.858 10.7586 37.4489 10.7586 37.4007C10.7586 37.3822 10.5346 37.138 10.2629 36.8531C7.52367 33.9739 5.80523 30.3177 5.30953 26.3247C5.15898 25.1146 5.14063 23.2568 5.26547 22.1059C5.29852 21.8247 5.30953 21.5804 5.29484 21.5656C5.28016 21.5545 4.79547 21.24 4.21164 20.8736C3.25328 20.2667 3.15781 20.2149 3.13945 20.2852Z" fill="var(--fill-0, #145F4A)"/>
<path id="Vector_9" d="M21.2969 33.1154C16.8649 36.409 13.2334 39.103 13.2298 39.0956C13.2224 39.0919 13.4611 38.3222 13.7548 37.3859C16.0828 29.9957 16.1856 29.659 16.1709 29.6293C16.1489 29.596 14.313 28.3341 14.302 28.3489C14.2873 28.3674 9.03281 44.9427 9.03281 44.9723C9.03281 45.1277 9.66438 44.6688 18.9542 37.7042C24.2931 33.7038 28.9601 30.2067 29.3273 29.9328C29.6945 29.659 29.9956 29.411 29.9992 29.3851C29.9992 29.337 29.386 27.1573 29.3677 27.1351C29.3603 27.1314 25.7288 29.8218 21.2969 33.1154Z" fill="var(--fill-0, #FD2043)"/>
<path id="Vector_10" d="M14.4562 41.5233C13.8577 41.9378 13.3656 42.2856 13.3656 42.2967C13.3656 42.33 14.9482 43.1183 15.4035 43.3107C20.713 45.5718 26.6137 45.5533 31.8535 43.2552C32.3859 43.0221 33.7445 42.33 33.7445 42.293C33.7445 42.2597 31.6295 40.7758 31.5855 40.7758C31.5671 40.7758 31.3137 40.8831 31.0237 41.0126C29.0886 41.8786 27.0654 42.3855 24.888 42.5558C24.0545 42.6187 22.2662 42.5817 21.4621 42.4818C19.4793 42.2412 17.6103 41.7157 15.9543 40.9423C15.756 40.8498 15.5834 40.7758 15.5724 40.7758C15.5577 40.7758 15.0584 41.1125 14.4562 41.5233Z" fill="var(--fill-0, #145F4A)"/>
</g>
</svg>
