<svg preserveAspectRatio="none" width="100%" height="100%" overflow="visible" style="display: block;" viewBox="0 0 42 36" fill="none" xmlns="http://www.w3.org/2000/svg">
<g id="icon_q2_menorah">
<path id="Vector" d="M19.7324 23.8654V21.6139C12.9965 21.1434 7.09573 16.3083 5.46252 9.93102C5.18916 8.86044 4.75087 6.65399 5.02307 5.62619C5.34602 4.40476 7.29643 4.4892 7.49942 5.80518C7.64129 6.72604 7.58939 7.69868 7.79124 8.67244C8.95963 14.3068 13.8997 18.5418 19.7336 19.1373V16.7733C14.7416 16.3601 10.2157 11.9483 9.92388 7.04124C9.86967 6.13052 9.8293 4.7211 11.1407 4.72673C12.6413 4.73236 12.3414 6.14966 12.481 7.02211C13.0911 10.8496 15.8328 13.5897 19.7336 14.2966V11.9326C17.639 11.4969 15.8316 10.0121 15.1476 8.02176C14.7947 6.99284 14.3057 4.86069 15.9988 4.73235C17.3991 4.62541 17.2699 6.04159 17.4798 6.87238C17.7624 7.99362 18.6563 8.9156 19.7347 9.34338V5.68473C19.7347 5.27046 20.5271 4.75037 20.9562 4.73461C21.4245 4.71772 22.2722 5.23556 22.2722 5.68473V9.34338C23.3506 8.9156 24.2445 7.99362 24.5271 6.87238C24.737 6.04159 24.6067 4.62541 26.0081 4.73235C27.7001 4.86069 27.2122 6.99396 26.8593 8.02176C26.1799 10.0019 24.3633 11.5183 22.2734 11.9326V14.2966C26.0773 13.6505 28.9181 10.8575 29.5075 7.11667C29.6494 6.21383 29.3529 4.73235 30.8662 4.7256C32.7612 4.71772 32.015 7.93283 31.699 9.0293C30.5121 13.136 26.6517 16.3691 22.2734 16.7721V19.1362C28.1027 18.5384 33.0473 14.3034 34.2157 8.67131C34.4175 7.69642 34.3656 6.72379 34.5075 5.80406C34.7105 4.48694 36.6609 4.40364 36.9839 5.62507C37.2561 6.65287 36.8178 8.86044 36.5444 9.92989C34.9089 16.3196 29.0208 21.1366 22.2745 21.6128V23.8643C31.3864 23.3442 38.2883 16.4626 39.3437 7.70881C39.4544 6.79021 39.0796 5.05882 40.3772 4.77288C41.6194 4.4982 42.0311 5.57553 42.0035 6.58982C41.955 8.39326 41.5456 10.5232 40.9908 12.2433C38.4118 20.2327 30.8478 25.9255 22.2745 26.4535V33.5456H26.1384C26.2018 33.5456 26.7693 33.844 26.8501 33.9216C27.526 34.5734 27.248 35.6992 26.3449 35.9986L15.4994 35.9367C14.7439 35.5314 14.5398 34.6218 15.1211 33.9678C15.2168 33.8608 15.7809 33.5445 15.8731 33.5445H19.737V26.4524C12.8985 26.0111 6.62976 22.3355 3.07959 16.6494C1.25721 13.7405 0.0957348 10.0087 0.00346258 6.58982C-0.0242191 5.57553 0.387546 4.49933 1.62976 4.77288C2.87197 5.04644 2.55248 6.79021 2.66321 7.70881C3.71857 16.4626 10.6205 23.3442 19.7324 23.8643V23.8654Z" fill="var(--fill-0, #145F4A)"/>
<path id="Vector_2" d="M1.24683 0.0144221C1.98155 -0.0868944 2.64591 1.49252 2.63898 2.08353C2.61938 4.05132 0 4.18866 0 2.0824C0 1.48576 0.564014 0.107858 1.24683 0.0144221Z" fill="var(--fill-0, #FD2043)"/>
<path id="Vector_3" d="M6.08997 0.0155508C6.72895 -0.158939 7.45098 1.18069 7.5075 1.74469C7.75548 4.26071 4.60784 4.28435 4.98039 1.64224C5.04383 1.18857 5.64245 0.139382 6.09112 0.0166765L6.08997 0.0155508Z" fill="var(--fill-0, #FD2043)"/>
<path id="Vector_4" d="M10.5467 0.377967C11.1499 -0.205165 11.5363 -0.00140667 11.985 0.638013C12.5467 1.43841 12.7474 2.74765 11.8316 3.37694C10.2007 4.49705 9.09805 1.77839 10.5467 0.377967Z" fill="var(--fill-0, #FD2043)"/>
<path id="Vector_5" d="M16.0104 0.0143953C16.7451 -0.0880469 17.4095 1.49362 17.4025 2.0835C17.3829 4.03328 14.9112 4.12447 14.7693 2.1927C14.722 1.55891 15.3022 0.112335 16.0104 0.0143953Z" fill="var(--fill-0, #FD2043)"/>
<path id="Vector_6" d="M30.7739 0.0143953C31.5086 -0.0880469 32.173 1.49362 32.1661 2.0835C32.1465 4.03328 29.6747 4.12447 29.5329 2.1927C29.4856 1.55891 30.0657 0.112335 30.7739 0.0143953Z" fill="var(--fill-0, #FD2043)"/>
<path id="Vector_7" d="M20.8535 0.0155508C21.4925 -0.158939 22.2145 1.18069 22.271 1.74469C22.5271 4.34064 19.2987 4.1988 19.7612 1.54656C19.8339 1.13003 20.4441 0.128125 20.8547 0.0166765L20.8535 0.0155508Z" fill="var(--fill-0, #FD2043)"/>
<path id="Vector_8" d="M25.3103 0.377967C25.9135 -0.205165 26.2999 -0.00140667 26.7486 0.638013C27.3103 1.43729 27.511 2.74877 26.5952 3.37694C24.9815 4.48354 23.8731 1.76713 25.3103 0.377967Z" fill="var(--fill-0, #FD2043)"/>
<path id="Vector_9" d="M35.6171 0.0155508C36.256 -0.158939 36.9781 1.18069 37.0346 1.74469C37.2906 4.34064 34.0623 4.1988 34.5248 1.54656C34.5975 1.13003 35.2076 0.128125 35.6182 0.0166765L35.6171 0.0155508Z" fill="var(--fill-0, #FD2043)"/>
<path id="Vector_10" d="M40.0738 0.377967C40.677 -0.205165 41.0634 -0.00140667 41.5121 0.638013C42.0738 1.43729 42.2745 2.74877 41.3587 3.37694C39.7451 4.48354 38.6367 1.76713 40.0738 0.377967Z" fill="var(--fill-0, #FD2043)"/>
</g>
</svg>
