<svg preserveAspectRatio="none" width="100%" height="100%" overflow="visible" style="display: block;" viewBox="0 0 74 22" fill="none" xmlns="http://www.w3.org/2000/svg">
<g id="Layer_1-2" opacity="0.85">
<path id="Vector" d="M3.94126 16.6186L0 16.3161V16.084L0.232532 16.037C0.83888 15.8974 1.14205 15.5097 1.14205 14.8736V2.42067C1.14205 2.09459 1.09202 1.84635 0.990467 1.67596C0.888918 1.50558 0.682877 1.38954 0.372345 1.32638L0.0456233 1.23384V1.00029L4.19734 0L4.47697 0.210046L4.38425 3.49147V5.84164C4.89788 5.48471 5.45713 5.21738 6.06348 5.03818C6.66983 4.86045 7.28354 4.77084 7.90607 4.77084C8.79205 4.77084 9.57647 4.97648 10.2608 5.38776C10.9452 5.79904 11.4853 6.43506 11.8812 7.29581C12.2785 8.15656 12.4758 9.26261 12.4758 10.6125C12.4758 11.9624 12.2535 13.0831 11.8105 13.9762C11.3676 14.8692 10.7759 15.539 10.0386 15.99C9.29979 16.4394 8.4874 16.6656 7.60143 16.6656C7.02598 16.6656 6.4476 16.5878 5.8648 16.4321C5.282 16.2764 4.76542 16.059 4.31361 15.7799L3.93979 16.6172L3.94126 16.6186ZM6.43583 15.8739C6.93327 15.8739 7.36889 15.7197 7.74124 15.4083C8.11506 15.0984 8.4094 14.5666 8.62721 13.8131C8.84503 13.0611 8.95394 12.0255 8.95394 10.7065C8.95394 9.38746 8.85239 8.37101 8.65076 7.65715C8.44914 6.94328 8.16509 6.44681 7.80011 6.16773C7.43512 5.88864 6.99508 5.7491 6.48292 5.7491C5.75148 5.7491 5.07596 5.95034 4.45342 6.35427V15.2923C4.74776 15.4788 5.05094 15.6213 5.36294 15.7226C5.67347 15.824 6.0311 15.8739 6.43583 15.8739Z" fill="var(--fill-0, black)"/>
<path id="Vector_2" d="M13.503 16.3162V16.0841L13.8533 15.9916C14.1638 15.8991 14.3787 15.7581 14.495 15.573C14.6112 15.3864 14.6701 15.147 14.6701 14.8518V7.56624C14.6701 7.22546 14.6112 6.97282 14.495 6.80978C14.3787 6.64674 14.1638 6.5351 13.8533 6.47194L13.503 6.3794V6.14732L17.5135 4.79745L17.7475 5.03099L17.9579 7.03304V7.21959C18.1757 6.78481 18.4598 6.38528 18.8086 6.021C19.1588 5.65673 19.5474 5.35708 19.9742 5.125C20.401 4.89292 20.8248 4.77541 21.2457 4.77541C21.8359 4.77541 22.2877 4.93846 22.5982 5.26454C22.9088 5.59063 23.0648 6.00191 23.0648 6.49838C23.0648 7.0257 22.9132 7.43404 22.61 7.72047C22.3068 8.0069 21.9448 8.15084 21.5254 8.15084C20.8719 8.15084 20.2965 7.82476 19.8005 7.17259L19.7534 7.12558C19.5974 6.90819 19.4193 6.78775 19.2177 6.76424C19.0161 6.74074 18.8292 6.83769 18.6584 7.05508C18.5024 7.19462 18.3744 7.36207 18.2729 7.55596C18.1713 7.74985 18.0742 7.97164 17.9815 8.21988V14.7137C17.9815 15.3336 18.2537 15.7228 18.7983 15.877L19.5444 16.0871V16.3192H13.5045V16.3162H13.503Z" fill="var(--fill-0, black)"/>
<path id="Vector_3" d="M29.2666 4.77077C30.2777 4.77077 31.1401 4.97641 31.8554 5.38769C32.5706 5.79897 33.1181 6.35713 33.4993 7.06365C33.8804 7.77017 34.0703 8.57364 34.0703 9.47258C34.0703 9.64297 34.0629 9.81776 34.0467 9.99549C34.0306 10.1732 34.0011 10.3333 33.954 10.4729H27.0046C27.0193 12.1488 27.3195 13.3548 27.9023 14.0921C28.4851 14.8295 29.352 15.1982 30.5028 15.1982C31.2799 15.1982 31.9098 15.0748 32.3911 14.8251C32.8723 14.5769 33.3241 14.2126 33.7436 13.7308L33.9761 13.9408C33.4934 14.7942 32.8532 15.4626 32.0526 15.9429C31.2519 16.4232 30.2924 16.6641 29.1724 16.6641C28.0524 16.6641 27.0885 16.4276 26.2349 15.9546C25.3798 15.4817 24.7102 14.8016 24.2289 13.9173C23.7462 13.0331 23.5063 11.9784 23.5063 10.752C23.5063 9.52546 23.7859 8.39738 24.3452 7.50431C24.9044 6.61272 25.6241 5.93264 26.5027 5.46701C27.3813 5.00138 28.3012 4.7693 29.2666 4.7693V4.77077ZM29.1974 5.2364C28.7456 5.2364 28.3615 5.373 28.0436 5.64327C27.7242 5.91501 27.4755 6.39532 27.2974 7.08569C27.1179 7.77605 27.0208 8.7499 27.006 10.0072H30.9944C31.1489 8.31659 31.0871 7.09744 30.8075 6.35273C30.5279 5.60802 29.9907 5.23493 29.1989 5.23493L29.1974 5.2364Z" fill="var(--fill-0, black)"/>
<path id="Vector_4" d="M45.8529 5.14669C45.613 4.80004 45.2024 4.62378 44.6343 4.62378C44.0662 4.62378 43.6526 4.8632 43.3671 5.33618C43.0846 5.80474 43.0463 6.3585 43.2553 6.9857L43.6526 8.08147C43.8189 8.50303 43.8881 8.90256 43.8572 9.2683C43.8263 9.63405 43.6821 10.0174 43.426 10.4081C42.9654 11.1147 42.4679 11.8065 41.9484 12.4631C41.4671 13.0726 40.9491 13.7145 40.4075 14.3711C40.3177 13.0051 40.225 11.7022 40.1279 10.4919C40.0263 9.21983 39.9292 8.03153 39.8365 6.92989C39.6937 5.44781 39.0476 4.69575 37.9174 4.69575C37.3743 4.69575 36.8356 4.89258 36.3205 5.28183C35.8113 5.6652 35.2756 6.23805 34.7296 6.9857L34.6899 7.04005L35.0769 7.42636L35.1314 7.36173C35.7289 6.65374 36.063 6.50539 36.2381 6.50539C36.3588 6.50539 36.4633 6.54798 36.5575 6.63611C36.6222 6.69634 36.7061 6.85497 36.7429 7.27507C36.8975 8.68664 37.0535 10.1261 37.2095 11.592C37.3655 13.0668 37.5141 14.6678 37.6524 16.3497L37.6554 16.3834L37.9394 16.6111L39.4185 16.4451L39.4465 16.4422L39.4656 16.4231C40.6606 15.2142 41.7453 13.9745 42.6901 12.7377C43.6379 11.498 44.4238 10.3597 45.0272 9.35497C45.479 8.5941 45.7911 7.97865 45.9544 7.52624C46.1192 7.06943 46.2031 6.67724 46.2031 6.35997C46.2031 5.89581 46.0854 5.48894 45.8514 5.15257V5.14669H45.8529Z" fill="var(--fill-0, black)"/>
<path id="Vector_5" d="M47.1068 16.3159V16.0838L47.4335 15.9913C47.744 15.8987 47.9574 15.7577 48.0752 15.5727C48.1914 15.3861 48.2503 15.1379 48.2503 14.8279V7.54242C48.2503 7.21633 48.1929 6.9725 48.0752 6.80946C47.9589 6.64641 47.7455 6.53478 47.4335 6.47162L47.1068 6.40258V6.16904L51.3748 4.79565L51.6088 5.0292L51.5381 8.33413V14.8514C51.5381 15.1614 51.597 15.4096 51.7133 15.5962C51.8295 15.7827 52.0356 15.9222 52.3314 16.0148L52.5654 16.0853V16.3174H47.1068V16.3159Z" fill="var(--fill-0, black)"/>
<path id="Vector_6" d="M58.021 16.6655C57.0262 16.6655 56.252 16.4173 55.7001 15.9208C55.1482 15.4243 54.873 14.6326 54.873 13.5471V5.58741H53.2645V5.35533L53.8237 5.2628C54.305 5.1541 54.7215 4.9984 55.0717 4.79717C55.422 4.59594 55.7678 4.3242 56.1093 3.98195L58.021 1.86386H58.255L58.1844 5.12179H60.7967V5.58741H58.1609V13.9672C58.1609 14.5107 58.2815 14.922 58.5229 15.2011C58.7643 15.4802 59.0704 15.6197 59.4442 15.6197C59.7709 15.6197 60.0579 15.5389 60.3066 15.3759C60.5553 15.2128 60.8041 14.991 61.0528 14.7119L61.2853 14.944C60.9748 15.4713 60.5465 15.8914 60.0034 16.2014C59.4589 16.5113 58.7981 16.667 58.021 16.667V16.6655Z" fill="var(--fill-0, black)"/>
<path id="Vector_7" d="M63.9432 21.9023C63.3222 21.9023 62.8277 21.7466 62.4627 21.4366C62.0977 21.1267 61.9152 20.7301 61.9152 20.2498C61.9152 19.815 62.0697 19.4669 62.3817 19.2025C62.6923 18.9381 63.0425 18.8059 63.4311 18.8059C63.8196 18.8059 64.1463 18.8867 64.4098 19.0497C64.6747 19.2128 64.9072 19.4493 65.1088 19.7592L65.2722 19.9457C65.6136 20.4114 65.9565 20.4026 66.298 19.9222C66.4378 19.6902 66.5967 19.3832 66.7763 19.0027C66.9558 18.6223 67.1619 18.1141 67.3944 17.4781L62.8703 6.67903C62.7614 6.38379 62.6452 6.1473 62.5201 5.96957C62.395 5.79184 62.1934 5.64055 61.9137 5.51569L61.4943 5.35265V5.1191H67.3017V5.32915L66.8352 5.51569C66.4922 5.62439 66.3186 5.79918 66.3097 6.03861C66.3024 6.2795 66.3598 6.57768 66.4849 6.93461L68.9103 13.2184L71.2194 6.8641C71.343 6.50717 71.3901 6.20899 71.3592 5.9681C71.3283 5.72721 71.134 5.56123 70.7764 5.46722L70.2863 5.35118V5.11763H73.5285V5.35118L73.0149 5.51422C72.6573 5.62292 72.4086 5.77862 72.2687 5.97985C72.1289 6.18108 71.9965 6.46164 71.8728 6.8171L68.1185 17.0359C67.5121 18.6649 66.9058 19.8826 66.2994 20.6904C65.6931 21.4968 64.9072 21.9008 63.9432 21.9008V21.9023Z" fill="var(--fill-0, black)"/>
<path id="Vector_8" d="M49.8589 3.56061C49.3305 3.56061 48.8831 3.39463 48.5181 3.05973C48.1532 2.7263 47.9707 2.30327 47.9707 1.79064C47.9707 1.27801 48.1532 0.835883 48.5181 0.511266C48.8831 0.185179 49.3305 0.0221364 49.8589 0.0221364C50.3872 0.0221364 50.8302 0.185179 51.1878 0.511266C51.5455 0.837352 51.7236 1.26332 51.7236 1.79064C51.7236 2.31796 51.544 2.7263 51.1878 3.05973C50.8302 3.39316 50.3872 3.56061 49.8589 3.56061Z" fill="var(--fill-0, black)"/>
</g>
</svg>
