<svg width="66" height="63" viewBox="0 0 66 63" fill="none" xmlns="http://www.w3.org/2000/svg">
<path d="M4.5 1.5V0H0V1.5H4.5ZM64.5 1.5H66V0H64.5V1.5ZM64.5 61.5V63H66V61.5H64.5ZM4.5 61.5H0V63H4.5V61.5ZM4.5 1.5V3H64.5V1.5V0H4.5V1.5ZM64.5 1.5H63V61.5H64.5H66V1.5H64.5ZM64.5 61.5V60H4.5V61.5V63H64.5V61.5ZM4.5 61.5H9V1.5H4.5H0V61.5H4.5Z" fill="#F3B610"/>
<path d="M26.0084 21.0641L26.0138 21.0663H18.2846C17.4765 21.0663 16.6303 21.5575 16.6303 23.0124C16.4515 24.5218 16.4689 27.9195 16.6085 29.4552C16.7154 30.6263 17.519 31.5497 18.7338 31.5431V50.6576C18.8909 51.5886 19.5092 52.1922 20.3695 52.4989H50.6301C51.4959 52.1966 52.1044 51.5886 52.2658 50.6576V31.5431C53.4795 31.5497 54.2842 30.6252 54.3911 29.4552C54.5307 27.9195 54.5492 24.5218 54.3693 23.0124C54.2962 22.4011 54.3409 21.0663 52.8917 21.0663H45.0687L45.0741 21.0641H26.0084ZM29.2034 50.3728H20.8613V31.5453H29.2034V50.3728ZM29.2034 29.417H18.7349V23.1957H29.2034V29.417ZM39.6719 50.3728H31.3298V23.1957H39.6719V50.3728ZM50.1404 50.3728H41.7983V31.5453H50.1404V50.3728ZM52.2669 23.1957V29.417H41.7983V23.1957H52.2669Z" fill="#145F4A"/>
<path d="M46.8122 20.1517C49.3998 18.3268 49.8404 14.7064 47.7281 12.3074C46.8972 11.3644 45.7849 10.8711 44.5789 10.5895C44.5789 10.5895 44.2943 10.5 43.7861 10.5C43.001 10.5 42.4492 10.7379 42.1635 10.8318C40.1287 11.4987 37.6511 14.2218 36.3687 15.919C36.2313 16.1002 35.613 17.1207 35.5411 17.1382C35.408 17.1698 34.9969 16.4102 34.8791 16.2465C33.5804 14.45 30.9535 11.538 28.839 10.8318C28.5522 10.7358 28.2698 10.5295 27.2077 10.5295C26.1456 10.5295 25.2579 10.9355 25.2579 10.9355C21.377 12.457 20.7532 17.7756 24.1904 20.1506L26.0104 21.0641H45.0761L46.8143 20.1506L46.8122 20.1517ZM34.3459 19.9934C34.1453 20.0491 33.9413 20.1298 33.7331 20.1582C31.6677 20.442 26.0311 19.475 24.704 17.7516C23.0214 15.5676 24.7749 12.4504 27.525 12.7178C29.2262 12.8837 31.5238 15.3842 32.5532 16.6896C32.8967 17.1251 34.6545 19.5536 34.3459 19.9934ZM36.6544 19.9934C36.4996 19.7729 37.0655 18.7208 37.204 18.4741C38.1898 16.7158 41.4034 12.9197 43.4753 12.7178C46.5821 12.4155 48.1872 16.3 45.8067 18.2438C44.6857 19.1585 41.651 19.8755 40.1919 20.0731C39.0437 20.2281 37.7678 20.3187 36.6555 19.9934H36.6544Z" fill="#FD2043"/>
<path d="M38.5 31.5L38.5 29.5L32.5 29.5L32.5 31.5L38.5 31.5Z" fill="#FD2043"/>
<path d="M38.5 27.5L38.5 25.5L32.5 25.5L32.5 27.5L38.5 27.5Z" fill="#FD2043"/>
<path d="M38.5 35.5L38.5 33.5L32.5 33.5L32.5 35.5L38.5 35.5Z" fill="#FD2043"/>
<path d="M38.5 39.5L38.5 37.5L32.5 37.5L32.5 39.5L38.5 39.5Z" fill="#FD2043"/>
<path d="M38.5 43.5L38.5 41.5L32.5 41.5L32.5 43.5L38.5 43.5Z" fill="#FD2043"/>
<path d="M38.5 47.5L38.5 45.5L32.5 45.5L32.5 47.5L38.5 47.5Z" fill="#FD2043"/>
<path d="M31.3908 21.0641H29.1532V52.5H31.3908V21.0641Z" fill="#FD2043"/>
<path d="M41.8592 21.0641H39.6216V52.5H41.8592V21.0641Z" fill="#FD2043"/>
</svg>
