<svg width="66" height="63" viewBox="0 0 66 63" fill="none" xmlns="http://www.w3.org/2000/svg">
<path d="M4.5 1.5V0H0V1.5H4.5ZM64.5 1.5H66V0H64.5V1.5ZM64.5 61.5V63H66V61.5H64.5ZM4.5 61.5H0V63H4.5V61.5ZM4.5 1.5V3H64.5V1.5V0H4.5V1.5ZM64.5 1.5H63V61.5H64.5H66V1.5H64.5ZM64.5 61.5V60H4.5V61.5V63H64.5V61.5ZM4.5 61.5H9V1.5H4.5H0V61.5H4.5Z" fill="#F3B610"/>
<path d="M28.94 16.4681C31.2644 14.4894 34.5006 13.5 38.6521 13.5C41.3426 13.5 43.6359 13.8797 45.532 14.6392C47.4282 15.3986 48.8788 16.482 49.8873 17.8929C50.8958 19.3038 51.4001 21.0107 51.4001 22.9686C51.4001 24.9264 50.844 26.5811 49.7319 27.9397C48.7164 29.1799 47.2659 30.1449 45.3973 30.8416C45.4526 30.8555 45.5079 30.8695 45.5597 30.8869C47.8461 31.601 49.5661 32.6705 50.7162 34.0953H50.7127C51.8629 35.5201 52.4397 37.363 52.4397 39.4427C52.4397 41.5225 51.9319 43.313 50.9165 44.8145C49.9011 46.3159 48.4056 47.4725 46.4369 48.2842C44.4683 49.0924 42.0472 49.5 39.1736 49.5C34.6595 49.5 31.1849 48.4793 28.75 46.4379" stroke="#145F4A" stroke-width="2.5" stroke-linejoin="round"/>
<path d="M26.3899 16.4681C28.7143 14.4894 31.9505 13.5 36.102 13.5C38.7925 13.5 41.0859 13.8797 42.982 14.6392C44.8781 15.3986 46.3287 16.482 47.3372 17.8929C48.3458 19.3038 48.85 21.0107 48.85 22.9686C48.85 24.9264 48.2939 26.5811 47.1818 27.9397C46.1664 29.1799 44.7158 30.1449 42.8473 30.8416C42.9026 30.8555 42.9578 30.8695 43.0096 30.8869C45.296 31.601 47.016 32.6705 48.1662 34.0953H48.1627C49.3128 35.5201 49.8896 37.363 49.8896 39.4427C49.8896 41.5225 49.3819 43.313 48.3665 44.8145C47.3511 46.3159 45.8556 47.4725 43.8869 48.2842C41.9182 49.0924 39.4971 49.5 36.6235 49.5C32.1094 49.5 28.6349 48.4793 26.2 46.4379" stroke="#FD2043" stroke-width="2.5" stroke-linejoin="round"/>
<path d="M45.7766 34.0953C44.6264 32.6705 42.9064 31.601 40.62 30.8869C40.5682 30.8695 40.513 30.8555 40.4577 30.8416C42.3262 30.1449 43.7768 29.1799 44.7922 27.9397C45.9043 26.5811 46.4604 24.9264 46.4604 22.9686C46.4604 21.0107 45.9562 19.3038 44.9476 17.8929C43.9391 16.482 42.4885 15.3986 40.5924 14.6392C38.6963 13.8797 36.4029 13.5 33.7124 13.5C29.5609 13.5 26.3247 14.4894 24.0003 16.4681C21.6759 18.4468 20.4291 21.3312 20.2495 25.1075L29.2294 25.4942C29.3192 24.0241 29.7164 22.9233 30.4244 22.1952C31.1324 21.4671 32.1306 21.1013 33.4257 21.1013C34.2063 21.0874 34.8729 21.2163 35.422 21.488C35.9712 21.7597 36.3891 22.1464 36.6723 22.6481C36.959 23.1497 37.1006 23.7315 37.1006 24.4003C37.1006 25.2051 36.8934 25.8983 36.4789 26.4835C36.0645 27.0688 35.4808 27.5182 34.7313 27.8387C33.9784 28.1557 33.0907 28.3159 32.0684 28.3159H30.0168V33.6181H32.0684C33.3325 33.6181 34.417 33.7922 35.3288 34.1406C36.2371 34.489 36.9383 35.0011 37.4252 35.6769C37.9122 36.3527 38.1575 37.1435 38.1575 38.0562C38.1575 38.8435 37.9882 39.5194 37.6497 40.0802C37.3113 40.6411 36.8174 41.0765 36.1715 41.3901C35.5257 41.7001 34.7347 41.8569 33.8022 41.8569C32.2514 41.8569 31.0219 41.404 30.1135 40.5017C29.2017 39.5995 28.6353 38.307 28.4108 36.621L19.5 37.5302C19.9352 41.4284 21.372 44.3999 23.8103 46.4379C26.2453 48.4793 29.7198 49.5 34.2339 49.5C37.1075 49.5 39.5286 49.0924 41.4973 48.2842C43.466 47.4725 44.9615 46.3159 45.9769 44.8145C46.9923 43.313 47.5 41.5225 47.5 39.4427C47.5 37.363 46.9232 35.5201 45.7731 34.0953H45.7766Z" fill="#F0E5E9" stroke="#145F4A" stroke-width="2.5" stroke-linejoin="round"/>
</svg>
