<svg width="66" height="63" viewBox="0 0 66 63" fill="none" xmlns="http://www.w3.org/2000/svg">
<path d="M4.5 1.5V0H0V1.5H4.5ZM64.5 1.5H66V0H64.5V1.5ZM64.5 61.5V63H66V61.5H64.5ZM4.5 61.5H0V63H4.5V61.5ZM4.5 1.5V3H64.5V1.5V0H4.5V1.5ZM64.5 1.5H63V61.5H64.5H66V1.5H64.5ZM64.5 61.5V60H4.5V61.5V63H64.5V61.5ZM4.5 61.5H9V1.5H4.5H0V61.5H4.5Z" fill="#F3B610"/>
<path d="M40.8733 24.7197C37.623 22.5036 33.3384 22.7991 30.6791 25.4585C30.0881 26.0494 29.4971 26.9359 29.2016 27.6746C28.6107 29.0043 27.281 29.8908 25.9513 30.0385C24.6216 30.1862 23.1442 30.334 21.9622 30.925C16.0525 34.0276 15.9047 42.0057 20.928 47.029C25.9513 52.0522 33.9294 51.9045 37.032 45.9948C37.623 44.8128 37.7707 43.3354 37.9185 42.0057C38.0662 40.676 38.9527 39.3463 40.2824 38.7553C40.5779 38.6076 41.3166 38.3121 41.9075 38.1644C43.0895 37.8689 43.976 36.8347 44.4192 35.8005C44.7147 34.914 44.4192 33.8798 43.5327 33.4366L41.1688 32.1069" stroke="#145F4A" stroke-width="2.5" stroke-linecap="round" stroke-linejoin="round"/>
<path d="M30.8269 39.1985L28.6107 36.9824L45.4534 20.1396" stroke="#FD2043" stroke-width="2.5" stroke-linecap="round" stroke-linejoin="round"/>
<path d="M49.8858 22.3561H45.4535V17.9238L51.0677 12.3096L55.5 16.7419L49.8858 22.3561Z" stroke="#145F4A" stroke-width="2.5" stroke-linecap="round" stroke-linejoin="round"/>
<path d="M24.1785 39.1987L28.6108 43.631" stroke="#145F4A" stroke-width="2.5" stroke-linecap="round" stroke-linejoin="round"/>
</svg>
