<svg width="66" height="63" viewBox="0 0 66 63" fill="none" xmlns="http://www.w3.org/2000/svg">
<path d="M4.5 1.5V0H0V1.5H4.5ZM64.5 1.5H66V0H64.5V1.5ZM64.5 61.5V63H66V61.5H64.5ZM4.5 61.5H0V63H4.5V61.5ZM4.5 1.5V3H64.5V1.5V0H4.5V1.5ZM64.5 1.5H63V61.5H64.5H66V1.5H64.5ZM64.5 61.5V60H4.5V61.5V63H64.5V61.5ZM4.5 61.5H9V1.5H4.5H0V61.5H4.5Z" fill="#F3B610"/>
<path d="M56.0834 44.5H24.8334L28.1667 25.4333L35.25 18.5L40.25 21.1L45.6667 31.9333L50.25 29.3333L56.0834 44.5Z" stroke="#145F4A" stroke-width="2.5" stroke-linecap="round" stroke-linejoin="round"/>
<path d="M34.8333 18.5H26.9167L19.8333 25.4333L16.5 44.5H24.8333" stroke="#145F4A" stroke-width="2.5" stroke-linecap="round"/>
<path d="M21.5 40.0334L22.5 34.5" stroke="#FD2043" stroke-width="2.5" stroke-linecap="round"/>
<path d="M50.6667 41.0332H47.3334" stroke="#FD2043" stroke-width="2.5" stroke-linecap="round"/>
<path d="M39 27L37.3334 23.8483" stroke="#FD2043" stroke-width="2.5" stroke-linecap="round"/>
</svg>
