<svg width="66" height="63" viewBox="0 0 66 63" fill="none" xmlns="http://www.w3.org/2000/svg">
<path d="M4.5 1.5V0H0V1.5H4.5ZM64.5 1.5H66V0H64.5V1.5ZM64.5 61.5V63H66V61.5H64.5ZM4.5 61.5H0V63H4.5V61.5ZM4.5 1.5V3H64.5V1.5V0H4.5V1.5ZM64.5 1.5H63V61.5H64.5H66V1.5H64.5ZM64.5 61.5V60H4.5V61.5V63H64.5V61.5ZM4.5 61.5H9V1.5H4.5H0V61.5H4.5Z" fill="#F3B610"/>
<path d="M28.446 20.024C29.321 19.2838 30.5251 19.0965 31.5657 19.439C31.7838 18.6608 32.3945 17.9935 33.2622 17.7051C33.9365 17.4809 34.6638 17.5169 35.3097 17.8052C35.9557 18.094 36.4428 18.6012 36.682 19.234C36.8139 19.5844 36.6184 19.9693 36.2447 20.0935C35.871 20.2177 35.4606 20.0344 35.3281 19.684C35.2172 19.3907 34.9913 19.1551 34.6917 19.0211C34.3921 18.887 34.0547 18.8707 33.742 18.9742C33.0961 19.1886 32.7571 19.856 32.9857 20.4617C33.0998 20.7643 32.9705 21.1009 32.6762 21.265C32.3819 21.4292 32.005 21.3759 31.7754 21.1379C31.1557 20.4942 30.0936 20.443 29.4077 21.0235C29.0593 21.3183 28.8627 21.7229 28.8543 22.163C28.8475 22.5307 28.5274 22.8244 28.1364 22.8244C28.1322 22.8244 28.1275 22.8244 28.1233 22.8244C27.7265 22.818 27.4111 22.511 27.418 22.1389C27.4332 21.3336 27.8074 20.5622 28.4454 20.023L28.446 20.024Z" fill="#FD2043" stroke="#FD2043" stroke-width="0.75"/>
<path d="M21.8149 21.8229C22.1255 20.9269 22.9296 20.0658 24.0995 19.8209C23.7405 18.7484 24.1342 17.6642 24.8064 16.9643C25.4785 16.2644 26.5869 15.7839 27.7621 16.0067C27.8998 14.8899 28.7291 14.05 29.6467 13.6666C30.5644 13.2836 31.7852 13.2674 32.7622 13.9189C33.3719 12.951 34.4939 12.5 35.4983 12.5C36.5026 12.5 37.6247 12.951 38.2349 13.9189C39.2119 13.2674 40.4327 13.2836 41.3504 13.6666C42.268 14.0495 43.0978 14.8899 43.235 16.0067C44.4096 15.7844 45.5185 16.2644 46.1907 16.9643C46.8629 17.6642 47.2566 18.7479 46.8976 19.8209C48.0675 20.0658 48.8716 20.9274 49.1822 21.8229C49.4492 22.5932 49.4035 23.5444 48.8811 24.332C48.4985 24.2261 48.1405 24.1654 47.8363 24.1654H47.0321C47.9361 23.6943 48.026 22.8446 47.8163 22.2393C47.5966 21.605 46.9433 20.9357 45.8265 21.1353C45.527 21.1891 45.2232 21.0585 45.0702 20.8106C44.9173 20.5626 44.9488 20.2512 45.148 20.0343C45.8906 19.2265 45.599 18.3615 45.1233 17.8662C44.6477 17.3709 43.7606 17.0082 42.8266 17.6163C42.576 17.7795 42.2422 17.7765 41.9947 17.608C41.7477 17.4394 41.641 17.1432 41.7293 16.8687C42.0578 15.8475 41.4155 15.1683 40.7659 14.8973C40.1169 14.6262 39.1488 14.6331 38.5591 15.5454C38.4009 15.7903 38.0951 15.9145 37.7955 15.8549C37.497 15.7952 37.271 15.5651 37.2326 15.2807C37.0897 14.2225 36.2088 13.847 35.4978 13.847C34.7867 13.847 33.9058 14.2225 33.7629 15.2807C33.7245 15.5651 33.4985 15.7952 33.1995 15.8549C32.9005 15.9145 32.5946 15.7903 32.4364 15.5454C31.8467 14.6331 30.8792 14.6262 30.2301 14.8973C29.5805 15.1683 28.9388 15.8475 29.2668 16.8687C29.355 17.1427 29.2484 17.4394 29.0013 17.608C28.7538 17.7765 28.4206 17.7795 28.1694 17.6163C27.235 17.0077 26.3483 17.3709 25.8727 17.8662C25.3971 18.3615 25.1054 19.2265 25.848 20.0343C26.0477 20.2512 26.0787 20.5626 25.9258 20.8106C25.7729 21.0585 25.4696 21.1891 25.1695 21.1353C24.0532 20.9357 23.3994 21.6055 23.1798 22.2393C22.9701 22.8446 23.0594 23.6943 23.9639 24.1654H23.1424C22.814 24.1654 22.4661 24.2201 22.1087 24.3212C21.5931 23.5356 21.5484 22.5898 21.8144 21.8229H21.8149Z" fill="#FD2043" stroke="#FD2043" stroke-width="0.75"/>
<path d="M23.9645 24.166H24.202C26.2438 24.166 39.7623 24.166 39.7749 24.166C40.1602 24.166 40.4928 24.479 40.4928 24.8393C40.4928 25.1995 40.1649 25.5125 39.7749 25.5125H23.1068C22.4603 25.5125 21.9342 26.0059 21.9342 26.6121C21.9342 27.1611 22.3663 27.616 22.9275 27.6973C22.9312 27.6973 22.9344 27.6973 22.9381 27.6983C22.9696 27.7028 22.998 27.7057 23.0242 27.7077C23.0516 27.7097 23.0789 27.7116 23.1073 27.7116H47.8894C47.9456 27.7116 48.0024 27.7057 48.0586 27.6983C48.0623 27.6983 48.0655 27.6983 48.0691 27.6973C48.6304 27.616 49.0619 27.1606 49.0619 26.6121C49.0619 26.0059 48.5358 25.5125 47.8894 25.5125H43.6481C43.2871 25.5125 42.9702 25.2444 42.9339 24.9078C42.8945 24.5455 43.1888 24.2059 43.5751 24.169C43.5993 24.1665 43.6234 24.1655 43.6487 24.1655H47.0327H47.8368C48.1411 24.1655 48.499 24.2266 48.8816 24.3321C48.8785 24.3366 48.8759 24.3415 48.8727 24.3459C49.8255 24.7106 50.4988 25.5884 50.4988 26.6116C50.4988 27.6348 49.793 28.5549 48.8033 28.9029L46.3211 44.8665C46.2691 45.2017 45.9622 45.4427 45.6116 45.4427C45.5769 45.4427 45.5423 45.4402 45.507 45.4353C45.1144 45.3815 44.8427 45.04 44.9 44.6718L47.3281 29.0581H42.4178L40.7965 50.5817H43.9819L44.9 44.6718C44.9573 44.3037 45.3226 44.0489 45.7141 44.1026C46.1067 44.1563 46.3784 44.4983 46.3211 44.8665L45.3131 51.352C45.2616 51.6832 44.9589 51.9282 44.6026 51.9282H26.3962C26.0399 51.9282 25.7372 51.6827 25.6857 51.352L23.393 36.2634C23.3357 35.8953 23.6074 35.5537 24 35.5C24.3926 35.4463 24.7568 35.7011 24.8141 36.0693L27.0169 50.5817H30.2023L28.581 29.0581H23.6707L24.2278 32.6402C24.2851 33.0084 24.0133 33.3499 23.6208 33.4036C23.2282 33.4574 22.864 33.2026 22.8067 32.8344L22.1954 28.9024C21.2063 28.5544 20.5 27.6589 20.5 26.6111C20.5 25.5633 21.1732 24.7096 22.1261 24.3454C22.1208 24.337 22.1161 24.3287 22.1103 24.3208C22.4677 24.2197 22.8156 24.165 23.1441 24.165H23.9655L23.9645 24.166ZM36.2168 50.5822H39.3554L40.9767 29.0586H36.2162L36.2168 50.5822ZM31.6413 50.5822H34.7804V29.0586H30.0199L31.6413 50.5822Z" fill="#145F4A"/>
<path d="M46.3211 44.8665L48.8033 28.9029C49.793 28.5549 50.4988 27.6348 50.4988 26.6116C50.4988 25.5884 49.8255 24.7106 48.8727 24.3459C48.8759 24.3415 48.8785 24.3366 48.8816 24.3321C48.499 24.2266 48.1411 24.1655 47.8368 24.1655H47.0327H43.6487C43.6234 24.1655 43.5993 24.1665 43.5751 24.169C43.1888 24.2059 42.8945 24.5455 42.9339 24.9078C42.9702 25.2444 43.2871 25.5125 43.6481 25.5125H47.8894C48.5358 25.5125 49.0619 26.0059 49.0619 26.6121C49.0619 27.1606 48.6304 27.616 48.0691 27.6973C48.0655 27.6983 48.0623 27.6983 48.0586 27.6983C48.0024 27.7057 47.9456 27.7116 47.8894 27.7116H23.1073C23.0789 27.7116 23.0516 27.7097 23.0242 27.7077C22.998 27.7057 22.9696 27.7028 22.9381 27.6983C22.9344 27.6973 22.9312 27.6973 22.9275 27.6973C22.3663 27.616 21.9342 27.1611 21.9342 26.6121C21.9342 26.0059 22.4603 25.5125 23.1068 25.5125H39.7749C40.1649 25.5125 40.4928 25.1995 40.4928 24.8393C40.4928 24.479 40.1602 24.166 39.7749 24.166C39.7623 24.166 26.2438 24.166 24.202 24.166H23.9645L23.9655 24.165H23.1441C22.8156 24.165 22.4677 24.2197 22.1103 24.3208C22.1161 24.3287 22.1208 24.337 22.1261 24.3454C21.1732 24.7096 20.5 25.5633 20.5 26.6111C20.5 27.6589 21.2063 28.5544 22.1954 28.9024L22.8067 32.8344C22.864 33.2026 23.2282 33.4574 23.6208 33.4036C24.0133 33.3499 24.2851 33.0084 24.2278 32.6402L23.6707 29.0581H28.581L30.2023 50.5817H27.0169L24.8141 36.0693C24.7568 35.7011 24.3926 35.4463 24 35.5C23.6074 35.5537 23.3357 35.8953 23.393 36.2634L25.6857 51.352C25.7372 51.6827 26.0399 51.9282 26.3962 51.9282H44.6026C44.9589 51.9282 45.2616 51.6832 45.3131 51.352L46.3211 44.8665ZM46.3211 44.8665C46.2691 45.2017 45.9622 45.4427 45.6116 45.4427C45.5769 45.4427 45.5423 45.4402 45.507 45.4353C45.1145 45.3815 44.8427 45.04 44.9 44.6718M46.3211 44.8665C46.3784 44.4983 46.1067 44.1563 45.7141 44.1026C45.3226 44.0489 44.9573 44.3037 44.9 44.6718M44.9 44.6718L47.3281 29.0581H42.4178L40.7965 50.5817H43.9819L44.9 44.6718ZM36.2168 50.5822H39.3554L40.9767 29.0586H36.2162L36.2168 50.5822ZM31.6413 50.5822H34.7804V29.0586H30.0199L31.6413 50.5822Z" stroke="#145F4A" stroke-width="0.75"/>
</svg>
