<svg width="66" height="63" viewBox="0 0 66 63" fill="none" xmlns="http://www.w3.org/2000/svg">
<path d="M4.5 1.5V0H0V1.5H4.5ZM64.5 1.5H66V0H64.5V1.5ZM64.5 61.5V63H66V61.5H64.5ZM4.5 61.5H0V63H4.5V61.5ZM4.5 1.5V3H64.5V1.5V0H4.5V1.5ZM64.5 1.5H63V61.5H64.5H66V1.5H64.5ZM64.5 61.5V60H4.5V61.5V63H64.5V61.5ZM4.5 61.5H9V1.5H4.5H0V61.5H4.5Z" fill="#F3B610"/>
<path d="M34.7324 38.3654V36.1139C27.9965 35.6434 22.0957 30.8083 20.4625 24.431C20.1892 23.3604 19.7509 21.154 20.0231 20.1262C20.346 18.9048 22.2964 18.9892 22.4994 20.3052C22.6413 21.226 22.5894 22.1987 22.7912 23.1724C23.9596 28.8068 28.8997 33.0418 34.7336 33.6373V31.2733C29.7416 30.8601 25.2157 26.4483 24.9239 21.5412C24.8697 20.6305 24.8293 19.2211 26.1407 19.2267C27.6413 19.2324 27.3414 20.6497 27.481 21.5221C28.0911 25.3496 30.8328 28.0897 34.7336 28.7966V26.4326C32.639 25.9969 30.8316 24.5121 30.1476 22.5218C29.7947 21.4928 29.3057 19.3607 30.9988 19.2324C32.3991 19.1254 32.2699 20.5416 32.4798 21.3724C32.7624 22.4936 33.6563 23.4156 34.7347 23.8434V20.1847C34.7347 19.7705 35.5271 19.2504 35.9562 19.2346C36.4245 19.2177 37.2722 19.7356 37.2722 20.1847V23.8434C38.3506 23.4156 39.2445 22.4936 39.5271 21.3724C39.737 20.5416 39.6067 19.1254 41.0081 19.2324C42.7001 19.3607 42.2122 21.494 41.8593 22.5218C41.1799 24.5019 39.3633 26.0183 37.2734 26.4326V28.7966C41.0773 28.1505 43.9181 25.3575 44.5075 21.6167C44.6494 20.7138 44.3529 19.2324 45.8662 19.2256C47.7612 19.2177 47.015 22.4328 46.699 23.5293C45.5121 27.636 41.6517 30.8691 37.2734 31.2721V33.6362C43.1027 33.0384 48.0473 28.8034 49.2157 23.1713C49.4175 22.1964 49.3656 21.2238 49.5075 20.3041C49.7105 18.9869 51.6609 18.9036 51.9839 20.1251C52.2561 21.1529 51.8178 23.3604 51.5444 24.4299C49.9089 30.8196 44.0208 35.6366 37.2745 36.1128V38.3643C46.3864 37.8442 53.2883 30.9626 54.3437 22.2088C54.4544 21.2902 54.0796 19.5588 55.3772 19.2729C56.6194 18.9982 57.0311 20.0755 57.0035 21.0898C56.955 22.8933 56.5456 25.0232 55.9908 26.7433C53.4118 34.7327 45.8478 40.4255 37.2745 40.9535V48.0456H41.1384C41.2018 48.0456 41.7693 48.344 41.8501 48.4216C42.526 49.0734 42.248 50.1992 41.3449 50.4986L30.4994 50.4367C29.7439 50.0314 29.5398 49.1218 30.1211 48.4678C30.2168 48.3608 30.7809 48.0445 30.8731 48.0445H34.737V40.9524C27.8985 40.5111 21.6298 36.8355 18.0796 31.1494C16.2572 28.2405 15.0957 24.5087 15.0035 21.0898C14.9758 20.0755 15.3875 18.9993 16.6298 19.2729C17.872 19.5464 17.5525 21.2902 17.6632 22.2088C18.7186 30.9626 25.6205 37.8442 34.7324 38.3643V38.3654Z" fill="#145F4A"/>
<path d="M16.2468 14.5144C16.9815 14.4131 17.6459 15.9925 17.639 16.5835C17.6194 18.5513 15 18.6887 15 16.5824C15 15.9858 15.564 14.6079 16.2468 14.5144Z" fill="#FD2043"/>
<path d="M21.09 14.5156C21.729 14.3411 22.451 15.6807 22.5075 16.2447C22.7555 18.7607 19.6078 18.7844 19.9804 16.1422C20.0438 15.6886 20.6424 14.6394 21.0911 14.5167L21.09 14.5156Z" fill="#FD2043"/>
<path d="M25.5468 14.878C26.15 14.2948 26.5364 14.4986 26.985 15.138C27.5468 15.9384 27.7474 17.2476 26.8316 17.8769C25.2007 18.997 24.0981 16.2784 25.5468 14.878Z" fill="#FD2043"/>
<path d="M31.0104 14.5144C31.7451 14.412 32.4094 15.9936 32.4025 16.5835C32.3829 18.5333 29.9112 18.6245 29.7693 16.6927C29.722 16.0589 30.3022 14.6123 31.0104 14.5144Z" fill="#FD2043"/>
<path d="M45.7739 14.5144C46.5086 14.412 47.173 15.9936 47.1661 16.5835C47.1465 18.5333 44.6747 18.6245 44.5329 16.6927C44.4856 16.0589 45.0657 14.6123 45.7739 14.5144Z" fill="#FD2043"/>
<path d="M35.8535 14.5156C36.4925 14.3411 37.2145 15.6807 37.271 16.2447C37.5271 18.8406 34.2987 18.6988 34.7612 16.0466C34.8339 15.63 35.4441 14.6281 35.8547 14.5167L35.8535 14.5156Z" fill="#FD2043"/>
<path d="M40.3103 14.878C40.9135 14.2948 41.2999 14.4986 41.7486 15.138C42.3103 15.9373 42.511 17.2488 41.5952 17.8769C39.9815 18.9835 38.8731 16.2671 40.3103 14.878Z" fill="#FD2043"/>
<path d="M50.6171 14.5156C51.256 14.3411 51.9781 15.6807 52.0346 16.2447C52.2906 18.8406 49.0623 18.6988 49.5248 16.0466C49.5975 15.63 50.2076 14.6281 50.6182 14.5167L50.6171 14.5156Z" fill="#FD2043"/>
<path d="M55.0738 14.878C55.677 14.2948 56.0634 14.4986 56.5121 15.138C57.0738 15.9373 57.2745 17.2488 56.3587 17.8769C54.7451 18.9835 53.6367 16.2671 55.0738 14.878Z" fill="#FD2043"/>
</svg>
