<svg width="66" height="63" viewBox="0 0 66 63" fill="none" xmlns="http://www.w3.org/2000/svg">
<path d="M4.5 1.5V0H0V1.5H4.5ZM64.5 1.5H66V0H64.5V1.5ZM64.5 61.5V63H66V61.5H64.5ZM4.5 61.5H0V63H4.5V61.5ZM4.5 1.5V3H64.5V1.5V0H4.5V1.5ZM64.5 1.5H63V61.5H64.5H66V1.5H64.5ZM64.5 61.5V60H4.5V61.5V63H64.5V61.5ZM4.5 61.5H9V1.5H4.5H0V61.5H4.5Z" fill="#F3B610"/>
<path d="M35.798 8.53892C35.7797 8.59073 31.9573 20.629 31.5717 21.8539C31.4395 22.2721 31.3184 22.6532 31.3 22.705C31.2816 22.7568 31.1494 23.1713 31.0062 23.6302C30.863 24.0891 30.7309 24.5036 30.7125 24.5554C30.6941 24.6072 30.5619 25.0216 30.4187 25.4805C30.2755 25.9394 30.1434 26.3539 30.125 26.4057C30.0259 26.6869 27.9219 33.3555 27.9255 33.3851C27.9255 33.4406 29.6917 34.8506 29.7211 34.8173C29.7358 34.8025 29.8716 34.388 30.0259 33.8995C30.5473 32.2305 31.4873 29.2367 31.8508 28.0895C32.0491 27.4567 32.4787 26.0911 32.8055 25.055C33.1323 24.0151 33.6096 22.4941 33.8703 21.6689C35.1738 17.5241 35.5227 16.4102 35.6034 16.1475C35.6512 15.9883 35.6952 15.8588 35.7062 15.8588C35.7173 15.8588 36.4002 17.9016 37.2264 20.3958L38.7245 24.9328L39.4846 24.9106C39.8995 24.8958 40.4834 24.8773 40.7771 24.8662L41.3132 24.844L41.0819 24.1335C40.957 23.7449 40.7037 22.9641 40.5201 22.3979C39.9032 20.5068 39.5287 19.3448 39.1982 18.3272C39.0183 17.7758 38.4381 15.9883 37.9094 14.3601C37.3806 12.7318 36.8041 10.948 36.6242 10.4004C36.4443 9.84896 36.235 9.20134 36.1579 8.9571C36.0257 8.54262 36.0073 8.51302 35.9155 8.50191C35.8568 8.49451 35.8091 8.50932 35.798 8.53892Z" fill="#FD2043"/>
<path d="M37.6156 11.6882C37.6156 11.7215 38.3426 14.1269 38.361 14.1417C38.3683 14.1528 38.585 14.1898 38.8383 14.2305C41.2324 14.6006 43.4649 15.4147 45.5652 16.6841C47.7059 17.9756 49.6851 19.8518 51.1722 21.9908C51.5761 22.5718 52.1232 23.4896 52.4133 24.0743C52.5381 24.3296 52.6483 24.5443 52.6593 24.5554C52.6776 24.5739 54.5026 24.659 54.9909 24.6627L55.3104 24.6664L55.1635 24.3222C53.6323 20.7696 51.2126 17.7536 48.0988 15.5073C46.0095 14.0011 43.5824 12.8761 41.0819 12.2544C40.1161 12.0138 38.9191 11.8103 38.0379 11.7326C37.8983 11.7215 37.7441 11.703 37.7001 11.6919C37.6523 11.6845 37.6156 11.6808 37.6156 11.6882Z" fill="#145F4A"/>
<path d="M33.7785 11.7548C31.7223 12.0176 30.1213 12.4209 28.3258 13.1352C27.6612 13.4016 26.1851 14.1306 25.5535 14.5081C21.5659 16.8839 18.5072 20.4699 16.7888 24.7774C16.6859 25.0328 16.5978 25.2622 16.5868 25.2844C16.5721 25.3214 16.8402 25.3325 17.8573 25.3325C18.812 25.3325 19.1461 25.3214 19.1461 25.2881C19.1461 25.2178 19.8474 23.793 20.1008 23.3527C21.6136 20.6993 23.7947 18.4234 26.3613 16.8136C28.3956 15.5369 30.584 14.7042 33.0074 14.2824C33.3122 14.2305 33.5619 14.1861 33.5656 14.1824C33.5656 14.1787 33.7124 13.6903 33.8887 13.1018C34.0613 12.5097 34.2265 11.9583 34.2559 11.8695L34.3073 11.7141L34.1714 11.7178C34.098 11.7215 33.9217 11.74 33.7785 11.7548Z" fill="#145F4A"/>
<path d="M56.3972 25.0401C54.6604 25.0697 51.1501 25.1289 47.8969 25.1844C46.6962 25.2066 44.7464 25.2362 43.564 25.2584C39.4479 25.3287 36.705 25.3732 34.9829 25.4028C34.0282 25.4176 33.2387 25.4398 33.2277 25.4509C33.191 25.4879 32.5778 27.5972 32.5998 27.6157C32.6219 27.638 37.6487 27.5861 49.619 27.4381C51.3998 27.4196 52.8686 27.4048 52.8722 27.4122C52.8833 27.4233 44.7574 33.4776 44.5812 33.5923C44.5554 33.6071 44.6472 34.0142 44.8345 34.7321C44.9924 35.3464 45.1356 35.8682 45.1503 35.8867C45.1613 35.9126 45.4 35.7572 45.7378 35.5056C46.0462 35.2761 48.712 33.2778 51.6605 31.0685C54.609 28.8592 57.5796 26.6351 58.2589 26.1281C59.3568 25.3065 59.4963 25.1918 59.5 25.0993V24.9994L58.7215 25.0068C58.2919 25.0105 57.2454 25.0253 56.3972 25.0401Z" fill="#FD2043"/>
<path d="M29.207 25.5064C29.0345 25.5101 27.7566 25.5323 26.3613 25.5545C24.9697 25.5767 22.862 25.61 21.6797 25.6285C20.4973 25.6508 18.5586 25.6804 17.3652 25.7026C16.1755 25.7211 14.593 25.7507 13.8513 25.7618L12.5 25.7877V25.8876C12.5 25.9764 12.992 26.3391 17.5231 29.5883C20.2844 31.5681 25.0578 34.9949 28.1348 37.2042C31.2082 39.4098 33.7455 41.2083 33.7712 41.1972C33.8336 41.175 35.7246 39.691 35.732 39.6614C35.7356 39.6466 35.0967 39.1693 34.3146 38.5994C33.5325 38.0295 29.89 35.365 26.2218 32.6783L19.5463 27.7934L21.6503 27.7675C22.807 27.7527 24.9734 27.7268 26.4605 27.7083C27.9513 27.6898 29.1813 27.6676 29.1923 27.6565C29.218 27.6269 29.8312 25.5915 29.8312 25.5286C29.8312 25.4953 29.7835 25.4842 29.677 25.4879C29.5889 25.4916 29.3796 25.499 29.207 25.5064Z" fill="#FD2043"/>
<path d="M41.0121 27.886C40.6303 27.9008 40.1786 27.9156 40.0134 27.9193L39.716 27.923L42.9031 37.5632C44.6583 42.8662 46.0867 47.2034 46.0756 47.2034C46.0646 47.2034 39.246 42.2186 38.4161 41.6043L38.3133 41.5266L37.2485 42.2445C36.4076 42.8107 36.191 42.9698 36.2277 43.0068C36.2534 43.0291 38.9265 44.9534 42.1688 47.2811C45.411 49.6051 48.6129 51.9069 49.2885 52.3917C49.9642 52.8765 50.5186 53.2688 50.526 53.2614C50.5333 53.254 49.7585 50.8522 47.4967 43.8913C47.3755 43.5249 46.9936 42.3518 46.6485 41.2823C46.3033 40.2129 45.8737 38.888 45.6938 38.3403C45.5138 37.7889 45.2201 36.8823 45.0365 36.3235C44.8566 35.7647 44.5592 34.8432 44.3756 34.2807C44.192 33.7145 43.8946 32.7967 43.7146 32.2453C43.5347 31.6902 43.2373 30.7762 43.0537 30.2174C42.8738 29.6586 42.6278 28.8999 42.5103 28.5336L42.2936 27.8675L41.9999 27.8638C41.842 27.8638 41.3977 27.8712 41.0121 27.886Z" fill="#FD2043"/>
<path d="M55.3324 28.6594C54.8037 29.0183 54.3373 29.3403 54.2896 29.3736L54.2015 29.4365L54.2602 29.8917C54.4916 31.5977 54.5136 33.0964 54.3373 34.6396C54.0877 36.8637 53.4818 38.9102 52.4867 40.8937C51.6091 42.6404 50.559 44.1207 49.1527 45.5788L48.6459 46.1043L48.9911 47.3662C49.1784 48.0582 49.3399 48.6318 49.3473 48.6392C49.373 48.6688 50.3717 47.7362 50.9445 47.1441C54.0179 43.969 55.9934 39.9242 56.6139 35.5352C56.7718 34.4361 56.8012 33.9402 56.8012 32.4932C56.8012 30.8316 56.7094 29.8436 56.4303 28.4632C56.3826 28.2227 56.3422 28.0191 56.3422 28.0117C56.3422 27.9747 56.2173 28.0524 55.3324 28.6594Z" fill="#145F4A"/>
<path d="M15.6395 28.7852C15.5109 29.3958 15.3677 30.7798 15.331 31.7864C15.2759 33.2112 15.3531 34.4731 15.5697 35.8756C16.238 40.1573 18.2795 44.2021 21.3235 47.2885C21.922 47.8954 22.4802 48.4061 22.5095 48.3802C22.5279 48.358 23.2586 45.9488 23.2586 45.9007C23.2586 45.8822 23.0346 45.638 22.7629 45.353C20.0237 42.4739 18.3052 38.8177 17.8095 34.8246C17.659 33.6145 17.6406 31.7568 17.7655 30.6059C17.7985 30.3246 17.8095 30.0804 17.7948 30.0656C17.7802 30.0545 17.2955 29.7399 16.7116 29.3736C15.7533 28.7667 15.6578 28.7149 15.6395 28.7852Z" fill="#145F4A"/>
<path d="M33.7969 41.6153C29.3649 44.9089 25.7335 47.603 25.7298 47.5956C25.7224 47.5919 25.9611 46.8222 26.2549 45.8859C28.5828 38.4957 28.6857 38.1589 28.671 38.1293C28.6489 38.096 26.813 36.8341 26.802 36.8489C26.7873 36.8674 21.5328 53.4426 21.5328 53.4722C21.5328 53.6277 22.1644 53.1688 31.4542 46.2042C36.7932 42.2037 41.4601 38.7066 41.8273 38.4328C42.1945 38.1589 42.4956 37.911 42.4992 37.8851C42.4992 37.837 41.886 35.6573 41.8677 35.6351C41.8603 35.6314 38.2289 38.3218 33.7969 41.6153Z" fill="#FD2043"/>
<path d="M26.9561 50.0233C26.3576 50.4378 25.8656 50.7857 25.8656 50.7968C25.8656 50.8301 27.4482 51.6183 27.9035 51.8107C33.213 54.0718 39.1137 54.0533 44.3535 51.7552C44.8859 51.5221 46.2445 50.8301 46.2445 50.7931C46.2445 50.7597 44.1295 49.2758 44.0854 49.2758C44.0671 49.2758 43.8137 49.3831 43.5236 49.5126C41.5886 50.3786 39.5654 50.8856 37.3879 51.0558C36.5544 51.1187 34.7662 51.0817 33.9621 50.9818C31.9793 50.7412 30.1103 50.2158 28.4543 49.4423C28.256 49.3498 28.0834 49.2758 28.0724 49.2758C28.0577 49.2758 27.5583 49.6125 26.9561 50.0233Z" fill="#145F4A"/>
</svg>
