<svg width="66" height="63" viewBox="0 0 66 63" fill="none" xmlns="http://www.w3.org/2000/svg">
<path d="M4.5 1.5V0H0V1.5H4.5ZM64.5 1.5H66V0H64.5V1.5ZM64.5 61.5V63H66V61.5H64.5ZM4.5 61.5H0V63H4.5V61.5ZM4.5 1.5V3H64.5V1.5V0H4.5V1.5ZM64.5 1.5H63V61.5H64.5H66V1.5H64.5ZM64.5 61.5V60H4.5V61.5V63H64.5V61.5ZM4.5 61.5H9V1.5H4.5H0V61.5H4.5Z" fill="#F3B610"/>
<circle cx="42" cy="25.5" r="15.75" stroke="#145F4A" stroke-width="2.5"/>
<circle cx="31" cy="37.5" r="15.75" stroke="#145F4A" stroke-width="2.5"/>
<path d="M35.4659 26.7085L31.9659 30.2085" stroke="#FD2043" stroke-width="2.5" stroke-linecap="round"/>
<path d="M31.1789 25.25L30.5074 25.9216" stroke="#FD2043" stroke-width="2.5" stroke-linecap="round"/>
<path d="M42.4926 36.5637L41.8211 37.2353" stroke="#FD2043" stroke-width="2.5" stroke-linecap="round"/>
<path d="M41.4232 32.6658L37.9232 36.1658" stroke="#FD2043" stroke-width="2.5" stroke-linecap="round"/>
<path d="M39.5429 28.7856L34.0429 34.2856" stroke="#FD2043" stroke-width="2.5" stroke-linecap="round"/>
</svg>
