<svg width="66" height="63" viewBox="0 0 66 63" fill="none" xmlns="http://www.w3.org/2000/svg">
<path d="M4.5 1.5V0H0V1.5H4.5ZM64.5 1.5H66V0H64.5V1.5ZM64.5 61.5V63H66V61.5H64.5ZM4.5 61.5H0V63H4.5V61.5ZM4.5 1.5V3H64.5V1.5V0H4.5V1.5ZM64.5 1.5H63V61.5H64.5H66V1.5H64.5ZM64.5 61.5V60H4.5V61.5V63H64.5V61.5ZM4.5 61.5H9V1.5H4.5H0V61.5H4.5Z" fill="#F3B610"/>
<path d="M35.5 35.5V52.5" stroke="#145F4A" stroke-width="3" stroke-linecap="round" stroke-linejoin="round"/>
<path d="M19.5 35.5H30.5L28.3757 45.5" stroke="#FD2043" stroke-width="3" stroke-linecap="round" stroke-linejoin="round"/>
<path d="M51.5 35.5H40.5L42.6244 45.5" stroke="#FD2043" stroke-width="3" stroke-linecap="round" stroke-linejoin="round"/>
<path d="M39.5 22.5H58.5" stroke="#FD2043" stroke-width="3" stroke-linecap="round" stroke-linejoin="round"/>
<path d="M31.7 29.5C37.6028 29.5 39.5001 23.7059 39.5001 21.6686V12.5H35.2837C33.9137 12.5 29.4864 13.137 30.1191 18.612C35.6 15.3018 35.2837 22.8141 30.4877 22.8141" stroke="#145F4A" stroke-width="3" stroke-linecap="round" stroke-linejoin="round"/>
<path d="M15.5 29.5H55.5" stroke="#145F4A" stroke-width="3" stroke-linecap="round" stroke-linejoin="round"/>
<path d="M30.4877 22.8141H12.5" stroke="#FD2043" stroke-width="3" stroke-linecap="round" stroke-linejoin="round"/>
</svg>
