<svg width="66" height="63" viewBox="0 0 66 63" fill="none" xmlns="http://www.w3.org/2000/svg">
<path d="M4.5 1.5V0H0V1.5H4.5ZM64.5 1.5H66V0H64.5V1.5ZM64.5 61.5V63H66V61.5H64.5ZM4.5 61.5H0V63H4.5V61.5ZM4.5 1.5V3H64.5V1.5V0H4.5V1.5ZM64.5 1.5H63V61.5H64.5H66V1.5H64.5ZM64.5 61.5V60H4.5V61.5V63H64.5V61.5ZM4.5 61.5H9V1.5H4.5H0V61.5H4.5Z" fill="#F3B610"/>
<path d="M51.1236 41.5001C51.1236 41.5001 56.4997 39.0088 56.4997 34.5263C56.5237 32.8792 55.5 32.2412 54.6 32C53.7 31.7588 52.5 32 51.1242 32.8765C50 32.0001 48.5 31.5001 47.0475 32.048C46.3149 32.3244 46.0515 32.6957 45.8906 32.8765" stroke="#FD2043" stroke-width="2.5" stroke-miterlimit="333.33" stroke-linecap="round"/>
<path d="M29.5227 50.5H45.0682" stroke="#145F4A" stroke-width="2.5" stroke-linecap="round" stroke-linejoin="round"/>
<path d="M37.2954 44.4541V49.6359" stroke="#145F4A" stroke-width="2.5" stroke-linecap="round" stroke-linejoin="round"/>
<path d="M31.9772 17.946C31.4665 17.7766 30.9198 17.6843 30.352 17.682C28.5935 17.6752 26.9501 18.5515 25.9839 20.0118C24.4043 17.6254 21.1773 16.9638 18.7764 18.5328C17.3068 19.4929 16.425 21.1259 16.4318 22.8734C16.4318 30.6079 25.9839 33.2271 25.9839 33.2271C25.9839 33.2271 27.8325 32.7651 28.5 32.5" stroke="#FD2043" stroke-width="2.5" stroke-miterlimit="333.33"/>
<path d="M42.6953 28.3026H47.7252L36.8634 12.5L26.0015 28.3026H31.032L21.75 44.4545H51.9773L42.6953 28.3026Z" stroke="#145F4A" stroke-width="2.5" stroke-linecap="round" stroke-linejoin="round"/>
</svg>
